<mxfile host="app.diagrams.net" agent="Mozilla/5.0 (Macintosh; Intel Mac OS X 10_15_7) AppleWebKit/537.36 (KHTML, like Gecko) Chrome/131.0.0.0 Safari/537.36" version="24.8.8">
  <diagram name="第 1 页" id="I86rheboTwOeaXijp489">
    <mxGraphModel dx="954" dy="507" grid="1" gridSize="10" guides="1" tooltips="1" connect="1" arrows="1" fold="1" page="1" pageScale="1" pageWidth="827" pageHeight="1169" math="0" shadow="0">
      <root>
        <mxCell id="0" />
        <mxCell id="1" parent="0" />
        <mxCell id="ZmqFNYJLuh8QEB_ycmnC-19" value="&lt;span style=&quot;background-color: initial; line-height: 150%;&quot;&gt;1、项目列表管理&lt;/span&gt;&lt;br&gt;&lt;span style=&quot;background-color: initial; line-height: 150%;&quot;&gt;2、项目配置&lt;/span&gt;&lt;br&gt;&lt;span style=&quot;background-color: initial; line-height: 150%;&quot;&gt;&amp;nbsp; 2-1、数据表配置&lt;/span&gt;&lt;br&gt;&lt;span style=&quot;background-color: initial; line-height: 150%;&quot;&gt;&amp;nbsp; 2-2、表单配置&lt;/span&gt;&lt;br&gt;&lt;span style=&quot;background-color: initial; line-height: 150%;&quot;&gt;&amp;nbsp; 2-3、表格配置&lt;/span&gt;&lt;br&gt;&lt;span style=&quot;background-color: initial; line-height: 150%;&quot;&gt;&amp;nbsp; 2-4、登录页面配置&lt;/span&gt;&lt;br&gt;&lt;span style=&quot;background-color: initial; line-height: 150%;&quot;&gt;&amp;nbsp; 2-5、路由配置&lt;/span&gt;&lt;div style=&quot;line-height: 150%;&quot;&gt;&amp;nbsp; 2-6、权限配置&lt;/div&gt;&lt;div style=&quot;line-height: 150%;&quot;&gt;&amp;nbsp; &amp;nbsp; 2-6-1、路由权限&lt;/div&gt;&lt;div style=&quot;line-height: 150%;&quot;&gt;&amp;nbsp; &amp;nbsp; 2-6-2、按钮权限&lt;br&gt;&lt;div&gt;&lt;span style=&quot;background-color: initial;&quot;&gt;3、&lt;/span&gt;&lt;/div&gt;&lt;/div&gt;" style="rounded=0;whiteSpace=wrap;html=1;align=left;verticalAlign=top;fontSize=14;spacing=12;" vertex="1" parent="1">
          <mxGeometry x="130" y="66" width="260" height="440" as="geometry" />
        </mxCell>
        <mxCell id="ZmqFNYJLuh8QEB_ycmnC-20" value="项目管理端" style="text;html=1;align=center;verticalAlign=middle;whiteSpace=wrap;rounded=0;fontSize=16;" vertex="1" parent="1">
          <mxGeometry x="130" y="30" width="130" height="30" as="geometry" />
        </mxCell>
        <mxCell id="ZmqFNYJLuh8QEB_ycmnC-24" value="后台管理端" style="text;html=1;align=center;verticalAlign=middle;whiteSpace=wrap;rounded=0;fontSize=16;" vertex="1" parent="1">
          <mxGeometry x="450" y="36" width="130" height="30" as="geometry" />
        </mxCell>
        <mxCell id="ZmqFNYJLuh8QEB_ycmnC-25" value="1、添加数据" style="rounded=0;whiteSpace=wrap;html=1;align=left;verticalAlign=top;fontSize=14;spacing=12;" vertex="1" parent="1">
          <mxGeometry x="450" y="66" width="260" height="440" as="geometry" />
        </mxCell>
      </root>
    </mxGraphModel>
  </diagram>
</mxfile>
